<svg xmlns="http://www.w3.org/2000/svg" fill="none" viewBox="0 0 24 24" id="React-Query-Icon--Streamline-Svg-Logos" height="24" width="24">
  <desc>
    React Query Icon Streamline Icon: https://streamlinehq.com
  </desc>
  <path fill="#00435b" d="m14.7521 14.55545 -0.45075 0.78275c-0.1358 0.235775 -0.387175 0.3811 -0.659275 0.3811H10.188925c-0.2721 0 -0.523475 -0.145325 -0.659275 -0.3811l-0.4508 -0.78275h5.67325Zm1.26195 -2.1912 -0.794825 1.380075h-6.6075l-0.794775 -1.380075h8.1971Zm-0.765625 -2.142725 0.7669 1.33165H7.815675l0.766875 -1.33165h6.665875Zm-1.60635 -2.0256c0.2721 0 0.523475 0.145325 0.659275 0.3811l0.47995 0.833375H9.049675l0.479975 -0.833375c0.1358 -0.235775 0.387175 -0.3811 0.659275 -0.3811h3.45315Z" stroke-width="0.25"></path>
  <path fill="#002b3b" d="M5.163225 7.832825c-0.382525 -1.85485 -0.4646 -3.2775 -0.21735 -4.310525 0.14705 -0.6144 0.4159 -1.115615 0.824725 -1.4772325 0.4316 -0.3817725 0.977275 -0.56911 1.5904 -0.56911 1.0115 0 2.0748 0.46125 3.21115 1.3374925 0.4635 0.357425 0.94455 0.788225 1.444125 1.29265 0.039775 -0.0512 0.084725 -0.099475 0.1348 -0.1441 1.412425 -1.258675 2.60155 -2.04069 3.618625 -2.342215 0.60475 -0.179285 1.17255 -0.1963675 1.6896 -0.0223625 0.545775 0.1836725 0.98065 0.5633475 1.287475 1.0951525 0.50635 0.877675 0.639875 2.03095 0.4511 3.454925 -0.07695 0.580425 -0.2085 1.2127 -0.394375 1.89775 0.070125 0.008475 0.140425 0.024025 0.210025 0.047075 1.79205 0.59385 3.061 1.232475 3.82925 1.962325 0.4571 0.434225 0.755575 0.91765 0.863475 1.452775 0.1139 0.564825 0.00285 1.131375 -0.3036 1.662775 -0.505425 0.8764 -1.434725 1.567625 -2.75865 2.1151 -0.5316 0.219825 -1.133075 0.418925 -1.8051 0.598 0.030675 0.069225 0.05445 0.14275 0.070375 0.2199 0.382525 1.854825 0.4646 3.277475 0.21735 4.310525 -0.14705 0.6144 -0.415925 1.1156 -0.824725 1.477225 -0.4316 0.381775 -0.977275 0.5691 -1.590425 0.5691 -1.011475 0 -2.0748 -0.46125 -3.21115 -1.3375 -0.468425 -0.3612 -0.954775 -0.797375 -1.460075 -1.30875 -0.052 0.081325 -0.115825 0.1569 -0.191325 0.2242 -1.412425 1.25865 -2.60155 2.040675 -3.618625 2.3422 -0.60475 0.179275 -1.17255 0.19635 -1.6896 0.02235 -0.545775 -0.183675 -0.98065 -0.56335 -1.287475 -1.09515 -0.50635 -0.877675 -0.639875 -2.030925 -0.4511 -3.454925 0.079725 -0.6014 0.218075 -1.258475 0.414725 -1.97225 -0.07685 -0.007775 -0.15405 -0.024025 -0.230375 -0.049325 -1.79205 -0.593875 -3.0609975 -1.2325 -3.829255 -1.962325 -0.4570925 -0.434225 -0.75558 -0.91765 -0.86348 -1.452775 -0.11389075 -0.564825 -0.00284 -1.131375 0.30362 -1.662775 0.5054175 -0.8764 1.4347275 -1.567625 2.75864 -2.1151 0.54745 -0.2264 1.168975 -0.430775 1.86535 -0.61395 -0.0248 -0.06075 -0.0444 -0.1246 -0.058125 -0.19115Z" stroke-width="0.25"></path>
  <path fill="#ff4154" d="M17.658925 16.28545c0.1782 -0.031575 0.348925 0.082675 0.388725 0.257925l0.002175 0.010375 0.019 0.098625c0.615925 3.238275 0.18205 4.857425 -1.301675 4.857425 -1.45165 0 -3.2996 -1.3816 -5.543825 -4.14485 -0.0496 -0.06105 -0.07635 -0.137475 -0.075675 -0.216125 0.001625 -0.183225 0.14865 -0.331125 0.330575 -0.3351l0.010525 -0.00005 0.118175 0.000825c0.9444 0.005125 1.862475 -0.0278 2.75425 -0.098775 1.0527 -0.083775 2.15195 -0.2272 3.29775 -0.430275Zm-10.18955 -2.447825 0.005675 0.0096 0.0593 0.1035c0.475225 0.826175 0.97035 1.610325 1.48535 2.35245 0.606525 0.873975 1.288575 1.758725 2.046175 2.65425 0.1172 0.13855 0.1038 0.344175 -0.0284 0.466475l-0.0086 0.0077 -0.07625 0.0656c-2.5066 2.147775 -4.135775 2.576525 -4.887575 1.2863 -0.735875 -1.262925 -0.469075 -3.5593 0.8004 -6.8891 0.0279 -0.073175 0.080325 -0.1344 0.148325 -0.1732 0.15895 -0.090725 0.360475 -0.03835 0.4556 0.116425ZM18.9309 9.05925l0.010275 0.00335 0.09435 0.032575C22.1295 10.17145 23.305 11.35425 22.561975 12.64355c-0.7267 1.26095 -2.839275 2.17905 -6.33775 2.754275 -0.078025 0.012825 -0.158075 -0.0021 -0.226225 -0.042175 -0.160975 -0.094625 -0.214775 -0.30185 -0.120125 -0.46285 0.501075 -0.85235 0.952375 -1.70045 1.353875 -2.544275 0.455375 -0.957025 0.8827 -1.98425 1.282 -3.081675 0.06055 -0.1664 0.238375 -0.256775 0.40685 -0.2106l0.0103 0.003Zm-10.92905 -0.541875c0.160975 0.094625 0.214775 0.30185 0.120125 0.46285 -0.501075 0.85235 -0.952375 1.70045 -1.353875 2.5443 -0.455375 0.957 -0.8827 1.984225 -1.282 3.081675 -0.061775 0.169775 -0.2457 0.2604 -0.41715 0.207575l-0.010275 -0.00335 -0.09435 -0.032575C1.87034 13.701575 0.6948525 12.518775 1.4378675 11.2295c0.7266925 -1.260975 2.8392825 -2.179075 6.3377575 -2.7543 0.078025 -0.012825 0.15805 0.0021 0.226225 0.042175Zm9.93295 -5.30105c0.735875 1.262925 0.469075 3.5593 -0.8004 6.8891 -0.0279 0.073175 -0.080325 0.1344 -0.148325 0.173225 -0.15895 0.0907 -0.360475 0.038325 -0.4556 -0.11645l-0.005675 -0.0096 -0.0593 -0.1035c-0.475225 -0.826175 -0.97035 -1.610325 -1.48535 -2.35245 -0.606525 -0.87395 -1.288575 -1.758725 -2.046175 -2.65425 -0.1172 -0.13855 -0.103825 -0.344175 0.0284 -0.466475l0.0086 -0.0077 0.076225 -0.0656C15.5538 2.3548625 17.183 1.9261 17.9348 3.216325ZM7.359475 2.447755c1.451675 0 3.299625 1.38162 5.54385 4.144845 0.0496 0.06105 0.07635 0.137475 0.075675 0.216125 -0.001625 0.183225 -0.14865 0.331125 -0.330575 0.3351l-0.010525 0.000075 -0.118175 -0.00085c-0.9444 -0.005125 -1.862475 0.0278 -2.75425 0.098775 -1.0527 0.0838 -2.15195 0.227225 -3.29775 0.430275 -0.1782 0.031575 -0.34895 -0.08265 -0.388725 -0.2579l-0.002175 -0.0104 -0.019 -0.098625c-0.61595 -3.238275 -0.18205 -4.85742 1.30165 -4.85742Z" stroke-width="0.25"></path>
  <path fill="#ffd94c" d="M10.4664 8.2384h2.898575c0.4239 0 0.815425 0.226725 1.026425 0.594375l1.4554 2.535975c0.209375 0.364825 0.209375 0.81335 0 1.17815l-1.4554 2.535975c-0.211 0.36765 -0.602525 0.594375 -1.026425 0.594375H10.4664c-0.4239 0 -0.815425 -0.226725 -1.026425 -0.594375l-1.455425 -2.535975c-0.20935 -0.3648 -0.20935 -0.813325 0 -1.17815l1.455425 -2.535975c0.211 -0.36765 0.602525 -0.594375 1.026425 -0.594375Zm2.4568 0.765425c0.424125 0 0.815825 0.22695 1.026725 0.594925l1.0149 1.77055c0.20895 0.364525 0.20895 0.812525 0 1.17705l-1.0149 1.770575c-0.2109 0.36795 -0.6026 0.594925 -1.026725 0.594925h-2.01505c-0.424125 0 -0.8158 -0.226975 -1.026725 -0.594925l-1.0149 -1.770575c-0.20895 -0.364525 -0.20895 -0.812525 0 -1.17705l1.0149 -1.77055c0.210925 -0.367975 0.6026 -0.594925 1.026725 -0.594925h2.01505Zm-0.476175 0.83715h-1.0627c-0.4237 0 -0.81505 0.2265 -1.02615 0.593875l-0.5363 0.9334c-0.20975 0.365075 -0.20975 0.8141 0 1.179175l0.5363 0.933375c0.2111 0.367375 0.60245 0.593875 1.02615 0.593875h1.0627c0.4237 0 0.815075 -0.2265 1.02615 -0.593875l0.5363 -0.933375c0.20975 -0.365075 0.20975 -0.8141 0 -1.179175l-0.5363 -0.9334c-0.211075 -0.367375 -0.60245 -0.593875 -1.02615 -0.593875Zm-0.458475 0.8013c0.423375 0 0.8145 0.226175 1.025675 0.5931l0.07605 0.1321c0.21035 0.36545 0.21035 0.81525 0 1.1807l-0.07605 0.1321c-0.211175 0.36695 -0.6023 0.5931 -1.025675 0.5931h-0.14575c-0.423375 0 -0.814475 -0.22615 -1.025675 -0.5931l-0.07605 -0.1321c-0.21035 -0.36545 -0.21035 -0.81525 0 -1.1807l0.07605 -0.1321c0.2112 -0.366925 0.6023 -0.5931 1.025675 -0.5931h0.14575Zm-0.072675 0.789325c-0.18845 0 -0.362225 0.1003 -0.4563 0.263125 -0.094075 0.162775 -0.094075 0.363425 0 0.526225 0.094075 0.1628 0.26785 0.2631 0.4559 0.2631 0.18845 0 0.362225 -0.1003 0.4563 -0.2631 0.094075 -0.1628 0.094075 -0.36345 0 -0.526225 -0.094075 -0.162825 -0.26785 -0.263125 -0.4559 -0.263125Zm-4.2694 0.526225h0.947425Z" stroke-width="0.25"></path>
</svg>